# AST/ASF file generated using VICON BodyLanguage
# -----------------------------------------------
:version 1.10
:name VICON
:units
  mass 1.0
  length 0.45
  angle deg
:documentation
   .ast/.asf automatically generated from VICON data using
   VICON BodyBuilder and BodyLanguage model FoxedUp or BRILLIANT.MOD
:root
   order TX TY TZ RX RY RZ
   axis XYZ
   position 0 0 0  
   orientation 0 0 0 
:bonedata
  begin
     id 1 
     name lhipjoint
     direction 0.623415 -0.642378 0.445763 
     length 2.49859 
     axis 0 0 0  XYZ
  end
  begin
     id 2 
     name lfemur
     direction 0.34202 -0.939693 0  
     length 6.69689  
     axis 0 0 20  XYZ
    dof rx ry rz
    limits (-160.0 20.0)
           (-70.0 70.0)
           (-60.0 70.0)
  end
  begin
     id 3 
     name ltibia
     direction 0.34202 -0.939693 0   
     length 7.37574   
     axis 0 0 20   XYZ
    dof rx
    limits (-10.0 170.0)
  end
  begin
     id 4 
     name lfoot
     direction 0.084323 -0.231675 0.969132   
     length 2.09111   
     axis -90 7.62852e-016 20   XYZ
    dof rx rz
    limits (-45.0 90.0)
           (-70.0 20.0)
  end
  begin
     id 5 
     name ltoes
     direction 1.5357e-011 -4.21957e-011 1   
     length 1.04989   
     axis -90 7.62852e-016 20   XYZ
    dof rx
    limits (-90.0 20.0)
  end
  begin
     id 6 
     name rhipjoint
     direction -0.605402 -0.653903 0.45376   
     length 2.45455  
     axis 0 0 0  XYZ 
  end
  begin
     id 7 
     name rfemur
     direction -0.34202 -0.939693 0   
     length 6.64523   
     axis 0 0 -20   XYZ
    dof rx ry rz
    limits (-160.0 20.0)
           (-70.0 70.0)
           (-70.0 60.0)
  end
  begin
     id 8 
     name rtibia
     direction -0.34202 -0.939693 0   
     length 7.3339   
     axis 0 0 -20   XYZ
    dof rx
    limits (-10.0 170.0)
 end
 begin
     id 9 
     name rfoot
     direction -0.120854 -0.332043 0.93549   
     length 2.23135  
     axis -90 -7.62852e-016 -20   XYZ
    dof rx rz
    limits (-45.0 90.0)
           (-20.0 70.0)
  end
  begin
     id 10 
     name rtoes
     direction -1.53563e-011 -4.21914e-011 1   
     length 1.10614   
     axis -90 -7.62852e-016 -20   XYZ
    dof rx
    limits (-90.0 20.0)
  end
  begin
     id 11 
     name lowerback
     direction 0.0319682 0.998615 -0.0417941   
     length 2.02718   
     axis 0 0 0   XYZ
    dof rx ry rz
    limits (-20.0 45.0)
           (-30.0 30.0)
           (-30.0 30.0)
  end
  begin
     id 12 
     name upperback
     direction 7.63181e-005 0.995808 0.0914691   
     length 1.97539   
     axis 0 0 0   XYZ
    dof rx ry rz
    limits (-20.0 45.0)
           (-30.0 30.0)
           (-30.0 30.0)
  end
  begin
     id 13 
     name thorax
     direction -0.016423 0.993627 0.111514   
     length 2.00349   
     axis 0 0 0   XYZ
    dof rx ry rz
    limits (-20.0 45.0)
           (-30.0 30.0)
           (-30.0 30.0)
  end
  begin
     id 14 
     name lowerneck
     direction -0.174763 0.981668 -0.0760716   
     length 1.71436   
     axis 0 0 0   XYZ
    dof rx ry rz
    limits (-20.0 45.0)
           (-30.0 30.0)
           (-30.0 30.0)
  end
  begin
     id 15 
     name upperneck
     direction 0.345458 0.934587 -0.0848868   
     length 1.72805   
     axis 0 0 0   XYZ
    dof rx ry rz
    limits (-20.0 45.0)
           (-30.0 30.0)
           (-30.0 30.0)
  end
  begin
     id 16
     name head
     direction 0.13001 0.989848 -0.0574291  
     length 1.767  
     axis 0 0 0   XYZ
    dof rx ry rz
    limits (-20.0 45.0)
           (-30.0 30.0)
           (-30.0 30.0)
  end
  begin
     id 17 
     name lclavicle
     direction 0.952951 0.290122 0.0878234  
     length 3.54654  
     axis 0 0 0   XYZ
    dof ry rz
    limits (-20.0 10.0)
           (0.0 20.0)
  end
  begin
     id 18 
     name lhumerus
     direction 1 -4.48957e-011 -4.56525e-028   
     length 5.19807   
     axis 180 -30 -90   XYZ
    dof rx ry rz
    limits (-60.0 90.0)
           (-90.0 90.0)
           (-90.0 90.0)
  end
  begin
     id 19
     name lradius
     direction 1 -4.48979e-011 -2.0317e-027   
     length 3.0937   
     axis 180 -30 -90   XYZ
    dof rx
    limits (-10.0 170.0)
  end
  begin
     id 20
     name lwrist
     direction 1 -4.48953e-011 -3.05809e-027   
     length 1.54685   
     axis 8.48514e-016 90 90   XYZ
    dof ry
    limits (-180.0 0.0)
 end
  begin
     id 21 
     name lhand
     direction 1 -4.48952e-011 -6.11639e-027   
     length 0.672632   
     axis 3.9013e-015 90 90   XYZ
    dof rx rz
    limits (-90.0 90.0)
           (-45.0 45.0)
  end
  begin
     id 22 
     name lfingers
     direction 1 -4.48925e-011 -1.22426e-026   
     length 0.542293   
     axis 7.80276e-015 90 90   XYZ
    dof rx
    limits (0.0 90.0)
  end
  begin
     id 23
     name lthumb
     direction 0.707107 -6.3486e-011 0.707107   
     length 0.778628   
     axis -90 45 5.37419e-014   XYZ
    dof rx rz
    limits (-45.0 45.0)
           (-45.0 45.0)
  end
  begin
     id 24 
     name rclavicle
     direction -0.960732 0.273675 -0.0457849   
     length 3.52079  
     axis 0 0 0   XYZ 
    dof ry rz
    limits (-10.0 20.0)
           (-20.0 0.0)
  end
  begin
     id 25 
     name rhumerus
     direction -1 -4.48976e-011 -1.63613e-027  
     length 5.45222   
     axis 180 30 90   XYZ
    dof rx ry rz
    limits (-90.0 60.0)
           (-90.0 90.0)
           (-90.0 90.0)
  end
  begin
     id 26 
     name rradius
     direction -1 -4.48957e-011 -7.00033e-028   
     length 3.01284   
     axis 180 30 90   XYZ
    dof rx
    limits (-10.0 170.0)
  end
  begin
     id 27 
     name rwrist
     direction -1 -4.48983e-011 -3.05543e-027   
     length 1.50642   
     axis 8.48514e-016 -90 -90   XYZ
    dof ry
    limits (-180.0 0.0)
  end
  begin
     id 28
     name rhand
     direction -1 -4.48984e-011 -6.11072e-027   
     length 0.622296   
     axis 3.9013e-015 -90 -90   XYZ
    dof rx rz
    limits (-90.0 90.0)
           (-45.0 45.0)
  end
  begin
     id 29
     name rfingers
     direction -1 -4.48865e-011 -1.22637e-026   
     length 0.501711   
     axis 7.80276e-015 -90 -90   XYZ
    dof rx
    limits (0.0 90.0)
  end
  begin
     id 30
     name rthumb
     direction -0.707107 -6.34932e-011 0.707107   
     length 0.72036   
     axis -90 -45 -5.37419e-014   XYZ
    dof rx rz
    limits (-45.0 45.0)
           (-45.0 45.0)
  end
:hierarchy
  begin
    root lhipjoint rhipjoint lowerback
    lhipjoint lfemur
    lfemur ltibia
    ltibia lfoot
    lfoot ltoes
    rhipjoint rfemur
    rfemur rtibia
    rtibia rfoot
    rfoot rtoes
    lowerback upperback
    upperback thorax
    thorax lowerneck lclavicle rclavicle
    lowerneck upperneck
    upperneck head
    lclavicle lhumerus
    lhumerus lradius
    lradius lwrist
    lwrist lhand lthumb
    lhand lfingers
    rclavicle rhumerus
    rhumerus rradius
    rradius rwrist
    rwrist rhand rthumb
    rhand rfingers
  end

#!OML:ASF H:\Not Pregnant\Project 1\Capture day 1\Session 1\non-pregnant.ASF
:FULLY-SPECIFIED
:DEGREES
55
root 2.0094 16.4506 -32.8139 17.3039 -6.70122 -2.42985
lowerback -8.91092 2.48182 2.49265
upperback -7.54013 3.11412 -1.91492
thorax -2.61277 1.41269 -3.17529
lowerneck 26.9173 -10.4177 -31.2343
upperneck -14.7295 -20.8883 45.6373
head 1.10855 -14.0567 25.5982
rclavicle -1.81143e-014 7.95139e-015
rhumerus -39.9084 14.2674 -102.189
rradius 36.9875
rwrist 17.169
rhand -6.36681 -5.00257
rfingers 7.12502
rthumb 19.4797 -34.0468
lclavicle -1.81143e-014 7.95139e-015
lhumerus -43.6826 -4.06326 88.5145
lradius 31.4681
lwrist 29.7663
lhand -14.7406 -9.75004
lfingers 7.12502
lthumb 11.4149 19.9192
rfemur -25.0193 9.83325 22.3597
rtibia 35.7414
rfoot -25.7966 -0.37251
rtoes -15.983
lfemur -21.531 6.03774 -16.6562
ltibia 33.0978
lfoot -25.1893 8.58569
ltoes -25.4304
56
root 1.99241 16.4421 -32.7947 17.3545 -6.80434 -2.46338
lowerback -8.76621 2.51334 2.5635
upperback -7.5315 3.15477 -1.95122
thorax -2.6749 1.42844 -3.25587
lowerneck 26.6856 -10.2758 -31.1804
upperneck -14.9293 -20.5374 45.6701
head 0.930462 -13.8559 25.7333
rclavicle 8.10048e-015 -3.97569e-015
rhumerus -40.7193 15.4769 -102.967
rradius 38.8866
rwrist 15.5258
rhand -6.68943 -5.62229
rfingers 7.12502
rthumb 19.1695 -34.6976
lclavicle 8.10048e-015 -3.97569e-015
lhumerus -43.7555 -3.6957 88.1131
lradius 31.8112
lwrist 29.8992
lhand -14.8211 -9.75832
lfingers 7.12502
lthumb 11.3373 19.9152
rfemur -25.0094 9.89781 22.4405
rtibia 35.8096
rfoot -25.9507 -0.363015
rtoes -15.8536
lfemur -21.5541 5.63556 -16.5481
ltibia 33.3211
lfoot -25.1411 9.19252
ltoes -25.8335
57
root 1.97557 16.433 -32.7756 17.4011 -6.89488 -2.51432
lowerback -8.59697 2.54211 2.65107
upperback -7.52103 3.19183 -1.97376
thorax -2.74872 1.44179 -3.33298
lowerneck 26.4423 -10.1297 -31.1379
upperneck -15.129 -20.1805 45.6929
head 0.751234 -13.6487 25.8637
rclavicle -2.50717e-014 1.59028e-015
rhumerus -41.5343 16.6411 -103.71
rradius 40.8116
rwrist 13.9679
rhand -7.07897 -6.14967
rfingers 7.12502
rthumb 18.7949 -35.2617
lclavicle -2.50717e-014 1.59028e-015
lhumerus -43.8598 -3.367 87.745
lradius 32.2263
lwrist 30.0768
lhand -14.9183 -9.7549
lfingers 7.12502
lthumb 11.2435 19.9238
rfemur -24.987 9.95335 22.5435
rtibia 35.8697
rfoot -26.1063 -0.34725
rtoes -15.7205
lfemur -21.6211 5.2248 -16.4179
ltibia 33.63
lfoot -25.0763 9.79693
ltoes -26.3148
58
root 1.95903 16.4234 -32.7562 17.4408 -6.96617 -2.58172
lowerback -8.40252 2.56537 2.75774
upperback -7.51823 3.22174 -1.98138
thorax -2.84493 1.4505 -3.40735
lowerneck 26.2174 -9.97115 -31.1141
upperneck -15.3232 -19.8176 45.6979
head 0.565596 -13.4363 25.9916
rclavicle -9.52924e-015 -1.59028e-015
rhumerus -42.3823 17.7312 -104.41
rradius 42.769
rwrist 12.5371
rhand -7.48076 -6.53765
rfingers 7.12502
rthumb 18.4084 -35.6866
lclavicle -9.52924e-015 -1.59028e-015
lhumerus -44.0231 -3.06919 87.4088
lradius 32.726
lwrist 30.3079
lhand -15.0259 -9.75182
lfingers 7.12502
lthumb 11.1398 19.9325
rfemur -24.944 9.98911 22.6699
rtibia 35.915
rfoot -26.2654 -0.319384
rtoes -15.5747
lfemur -21.7406 4.81216 -16.2661
ltibia 34.0424
lfoot -24.9976 10.3862
ltoes -26.8909
59
root 1.94285 16.4137 -32.7369 17.4732 -7.01414 -2.66821
lowerback -8.18047 2.58745 2.89013
upperback -7.51649 3.25018 -1.97804
thorax -2.95703 1.45723 -3.48634
lowerneck 25.995 -9.80821 -31.1036
upperneck -15.5021 -19.4567 45.6887
head 0.383147 -13.2222 26.1104
rclavicle -1.66606e-014 1.51076e-014
rhumerus -43.2446 18.7128 -105.047
rradius 44.7573
rwrist 11.261
rhand -7.85122 -6.78446
rfingers 7.12502
rthumb 18.052 -35.9667
lclavicle -1.66606e-014 1.51076e-014
lhumerus -44.2299 -2.83011 87.1136
lradius 33.3114
lwrist 30.6128
lhand -15.1335 -9.7507
lfingers 7.12502
lthumb 11.036 19.9392
rfemur -24.8751 9.99919 22.8237
rtibia 35.9358
rfoot -26.4259 -0.278705
rtoes -15.415
lfemur -21.9246 4.40478 -16.09
ltibia 34.5761
lfoot -24.8971 10.9509
ltoes -27.5791
60
root 1.92719 16.4043 -32.7177 17.5014 -7.04018 -2.77652
lowerback -7.92953 2.60162 3.04729
upperback -7.52207 3.26885 -1.95207
thorax -3.09376 1.45775 -3.55809
lowerneck 25.778 -9.62773 -31.1424
upperneck -15.6498 -19.0984 45.6641
head 0.212807 -13.0058 26.2306
rclavicle -3.89742e-014 -2.38542e-015
rhumerus -44.1309 19.6062 -105.619
rradius 46.7609
rwrist 10.1401
rhand -8.15815 -6.87506
rfingers 7.12502
rthumb 17.7567 -36.0843
lclavicle -3.89742e-014 -2.38542e-015
lhumerus -44.496 -2.61718 86.8628
lradius 33.9854
lwrist 30.9819
lhand -15.2384 -9.74986
lfingers 7.12502
lthumb 10.9348 19.9454
rfemur -24.7808 9.97262 23.0073
rtibia 35.9239
rfoot -26.5883 -0.209605
rtoes -15.2304
lfemur -22.1856 4.01844 -15.8891
ltibia 35.2473
lfoot -24.7622 11.4794
ltoes -28.3927
61
root 1.91218 16.3951 -32.6981 17.5154 -7.03877 -2.90748
lowerback -7.65208 2.61515 3.23907
upperback -7.5181 3.2872 -1.91395
thorax -3.23435 1.45676 -3.63772
lowerneck 25.5601 -9.45039 -31.2062
upperneck -15.8031 -18.7539 45.6422
head 0.0521094 -12.796 26.3555
rclavicle -3.66509e-015 -1.03368e-014
rhumerus -45.0122 20.3849 -106.116
rradius 48.7784
rwrist 9.16405
rhand -8.4482 -6.76407
rfingers 7.12502
rthumb 17.4775 -35.9984
lclavicle -3.66509e-015 -1.03368e-014
lhumerus -44.782 -2.45946 86.657
lradius 34.7302
lwrist 31.4147
lhand -15.3317 -9.75468
lfingers 7.12502
lthumb 10.8448 19.9453
rfemur -24.6414 9.89574 23.2255
rtibia 35.8695
rfoot -26.753 -0.108643
rtoes -15.0357
lfemur -22.5189 3.66209 -15.6622
ltibia 36.0712
lfoot -24.5915 11.9547
ltoes -29.3022
62
root 1.89794 16.3866 -32.6785 17.5169 -7.0081 -3.06023
lowerback -7.34231 2.62825 3.46472
upperback -7.50833 3.30628 -1.86418
thorax -3.38598 1.45452 -3.7257
lowerneck 25.3422 -9.27899 -31.2901
upperneck -15.9515 -18.4277 45.6196
head -0.0958971 -12.5948 26.478
rclavicle 1.98536e-014 8.74653e-015
rhumerus -45.8848 21.0548 -106.543
rradius 50.7994
rwrist 8.30442
rhand -8.71736 -6.49119
rfingers 7.12502
rthumb 17.2185 -35.7483
lclavicle 1.98536e-014 8.74653e-015
lhumerus -45.0809 -2.35502 86.4948
lradius 35.5265
lwrist 31.8957
lhand -15.403 -9.7624
lfingers 7.12502
lthumb 10.776 19.9412
rfemur -24.4561 9.7574 23.4769
rtibia 35.7657
rfoot -26.9196 0.033992
rtoes -14.8259
lfemur -22.9311 3.34254 -15.4119
ltibia 37.0588
lfoot -24.3682 12.3699
ltoes -30.2872
63
root 1.88433 16.3787 -32.6591 17.5079 -6.94793 -3.24139
lowerback -7.00416 2.63619 3.72494
upperback -7.48945 3.32039 -1.79502
thorax -3.54403 1.4484 -3.81439
lowerneck 25.1296 -9.11468 -31.3888
upperneck -16.1083 -18.117 45.592
head -0.238735 -12.4006 26.595
rclavicle 4.29499e-014 4.77083e-015
rhumerus -46.7339 21.6496 -106.908
rradius 52.7989
rwrist 7.52439
rhand -8.98288 -6.08354
rfingers 7.12502
rthumb 16.9629 -35.3628
lclavicle 4.29499e-014 4.77083e-015
lhumerus -45.3756 -2.27656 86.371
lradius 36.3499
lwrist 32.404
lhand -15.4495 -9.7843
lfingers 7.12502
lthumb 10.7312 19.9216
rfemur -24.2242 9.5543 23.7685
rtibia 35.6034
rfoot -27.0803 0.227009
rtoes -14.6089
lfemur -23.4272 3.07179 -15.1301
ltibia 38.2184
lfoot -24.0929 12.6986
ltoes -31.2869
64
root 1.87139 16.3718 -32.6394 17.4811 -6.85029 -3.44384
lowerback -6.6325 2.64492 4.01744
upperback -7.46659 3.33827 -1.71912
thorax -3.71551 1.44223 -3.91565
lowerneck 24.9589 -8.96744 -31.4653
upperneck -16.2928 -17.8265 45.5554
head -0.392619 -12.2195 26.6974
rclavicle 2.8215e-014 -4.77083e-015
rhumerus -47.5637 22.1396 -107.22
rradius 54.7732
rwrist 6.78381
rhand -9.23659 -5.59746
rfingers 7.12502
rthumb 16.7187 -34.8975
lclavicle 2.8215e-014 -4.77083e-015
lhumerus -45.6707 -2.25744 86.2841
lradius 37.1862
lwrist 32.9344
lhand -15.4693 -9.81614
lfingers 7.12502
lthumb 10.7121 19.8908
rfemur -23.933 9.28535 24.0944
rtibia 35.3754
rfoot -27.2308 0.463674
rtoes -14.3858
lfemur -24.0003 2.83454 -14.8213
ltibia 39.5505
lfoot -23.7483 12.9372
ltoes -32.2974
65
root 1.85814 16.3657 -32.6189 17.4168 -6.67211 -3.66614
lowerback -6.22246 2.63283 4.33378
upperback -7.42319 3.33242 -1.62516
thorax -3.8895 1.42338 -4.01378
lowerneck 24.7909 -8.84568 -31.5216
upperneck -16.49 -17.5624 45.5086
head -0.541937 -12.0516 26.7703
rclavicle -3.5862e-014 9.54166e-015
rhumerus -48.3527 22.5598 -107.483
rradius 56.7116
rwrist 6.04818
rhand -9.48001 -5.08499
rfingers 7.12502
rthumb 16.4843 -34.4047
lclavicle -3.5862e-014 9.54166e-015
lhumerus -45.9423 -2.27256 86.2301
lradius 38.0162
lwrist 33.4697
lhand -15.4688 -9.85994
lfingers 7.12502
lthumb 10.7126 19.8469
rfemur -23.5498 8.95453 24.4695
rtibia 35.0743
rfoot -27.3619 0.699205
rtoes -14.1725
lfemur -24.6355 2.60725 -14.4682
ltibia 41.052
lfoot -23.3411 13.0355
ltoes -33.2221
66
root 1.84426 16.3608 -32.5966 17.3074 -6.39593 -3.89848
lowerback -5.78865 2.59398 4.66592
upperback -7.3596 3.29498 -1.51521
thorax -4.05969 1.38843 -4.10565
lowerneck 24.6421 -8.74164 -31.5621
upperneck -16.6927 -17.322 45.4547
head -0.688293 -11.8973 26.8239
rclavicle -4.35338e-014 -2.62396e-014
rhumerus -49.107 22.9197 -107.709
rradius 58.6059
rwrist 5.29603
rhand -9.71711 -4.59843
rfingers 7.12502
rthumb 16.2561 -33.937
lclavicle -4.35338e-014 -2.62396e-014
lhumerus -46.1964 -2.32085 86.206
lradius 38.8236
lwrist 33.9935
lhand -15.4595 -9.91185
lfingers 7.12502
lthumb 10.7215 19.7946
rfemur -23.0648 8.56676 24.8888
rtibia 34.698
rfoot -27.4654 0.908773
rtoes -13.976
lfemur -25.3285 2.3664 -14.0738
ltibia 42.7152
lfoot -22.8634 12.9811
ltoes -34.0613
67
root 1.82914 16.3569 -32.5721 17.1414 -5.99634 -4.13278
lowerback -5.32655 2.52468 5.00698
upperback -7.26169 3.22133 -1.39775
thorax -4.21438 1.3359 -4.19559
lowerneck 24.4682 -8.67362 -31.5726
upperneck -16.8881 -17.1179 45.4078
head -0.811625 -11.7629 26.8488
rclavicle -1.32782e-016 -1.19271e-015
rhumerus -49.7957 23.2099 -107.896
rradius 60.4417
rwrist 4.55734
rhand -9.98071 -4.17838
rfingers 7.12502
rthumb 16.0022 -33.5375
lclavicle -1.32782e-016 -1.19271e-015
lhumerus -46.3924 -2.42662 86.2079
lradius 39.5802
lwrist 34.4894
lhand -15.4445 -9.97526
lfingers 7.12502
lthumb 10.736 19.7304
rfemur -22.4669 8.13494 25.3518
rtibia 34.2546
rfoot -27.5368 1.04693
rtoes -13.8102
lfemur -26.0776 2.08728 -13.6361
ltibia 44.5373
lfoot -22.3059 12.7585
ltoes -34.7723
68
root 1.81371 16.354 -32.5464 16.9494 -5.5334 -4.3755
lowerback -4.84526 2.43737 5.35543
upperback -7.14609 3.12824 -1.26686
thorax -4.36511 1.27386 -4.27565
lowerneck 24.2648 -8.62608 -31.5868
upperneck -17.0624 -16.9431 45.3684
head -0.906089 -11.6435 26.8595
rclavicle -4.29872e-014 -2.78299e-015
rhumerus -50.4264 23.4702 -108.048
rradius 62.221
rwrist 3.80657
rhand -10.1672 -3.89895
rfingers 7.12502
rthumb 15.8226 -33.2724
lclavicle -4.29872e-014 -2.78299e-015
lhumerus -46.5426 -2.55044 86.2322
lradius 40.2757
lwrist 34.9319
lhand -15.4463 -10.0341
lfingers 7.12502
lthumb 10.7343 19.6717
rfemur -21.8146 7.68614 25.8392
rtibia 33.7643
rfoot -27.5761 1.1466
rtoes -13.6747
lfemur -26.9148 1.79986 -13.1719
ltibia 46.5114
lfoot -21.6452 12.3915
ltoes -35.3251
69
root 1.80114 16.3524 -32.5221 16.8253 -5.17862 -4.65811
lowerback -4.37218 2.39762 5.74567
upperback -7.04978 3.10182 -1.13809
thorax -4.52395 1.24221 -4.37936
lowerneck 24.0377 -8.59812 -31.6036
upperneck -17.2214 -16.7964 45.3415
head -0.974425 -11.5393 26.863
rclavicle 3.55328e-014 3.57812e-015
rhumerus -51.0093 23.7103 -108.18
rradius 63.8972
rwrist 3.20597
rhand -10.5025 -3.61822
rfingers 7.12502
rthumb 15.4997 -33.0169
lclavicle 3.55328e-014 3.57812e-015
lhumerus -46.6389 -2.69516 86.2782
lradius 40.8942
lwrist 35.3096
lhand -15.4701 -10.0957
lfingers 7.12502
lthumb 10.7113 19.6112
rfemur -21.2553 7.25954 26.3137
rtibia 33.2567
rfoot -27.5861 1.35971
rtoes -13.5482
lfemur -27.9204 1.62045 -12.7145
ltibia 48.6318
lfoot -20.8437 11.945
ltoes -35.6728
